<?xml version="1.0" standalone="no"?>
<!DOCTYPE svg PUBLIC "-//W3C//DTD SVG 20010904//EN"
 "http://www.w3.org/TR/2001/REC-SVG-20010904/DTD/svg10.dtd">
<svg version="1.0" xmlns="http://www.w3.org/2000/svg"
 width="580.000000pt" height="580.000000pt" viewBox="0 0 580.000000 580.000000"
 preserveAspectRatio="xMidYMid meet">
<metadata>
Created by potrace 1.14, written by Peter Selinger 2001-2017
</metadata>
<g transform="translate(0.000000,580.000000) scale(0.100000,-0.100000)"
fill="#000000" stroke="none">
<path d="M1040 5790 c-25 -4 -63 -11 -84 -14 -60 -10 -207 -61 -287 -101 -165
-81 -317 -208 -430 -358 -99 -131 -190 -338 -225 -512 -4 -22 -9 -868 -10
-1880 -2 -1588 0 -1852 13 -1925 81 -465 423 -838 881 -960 42 -12 100 -24
127 -28 28 -4 878 -7 1890 -7 1758 0 1844 1 1925 19 372 81 672 315 835 650
50 102 90 219 111 321 11 55 15 3709 4 3765 -4 25 -10 59 -13 76 -18 118 -97
306 -183 435 -43 65 -192 226 -254 275 -97 76 -240 151 -368 194 -184 61 -95
59 -2077 58 -995 0 -1830 -4 -1855 -8z"/>
</g>
</svg>
